<svg width="458" height="134" viewBox="0 0 458 134" fill="none" xmlns="http://www.w3.org/2000/svg">
<path d="M45.5 133.8C45.4 133.7 45.3 133.7 45.2 133.6C43.6 131.6 33.7 119.2 23.6 103.2C20.6 98.1 18.6 94.2 19 93.1C20 90.4 37.6 89 43.1 91.4C44.8 92.1 44.7 93.1 44.7 93.7C44.7 96.1 44.6 102.7 44.6 102.7C44.6 104.1 45.7 105.2 47.1 105.1C48.5 105.1 49.6 104 49.5 102.6V86.3C49.5 84.9 48 84.5 47.7 84.5C44.9 84.5 39.1 84.5 32.9 84.5C19.3 84.5 16.2 85.1 13.9 83.5C8.90001 80.2 0.700009 58.1 0.500009 45.6C0.200009 28 10.6 12.8 25.3 5.3C31.4 2.2 38.3 0.5 45.6 0.5C68.8 0.5 87.9 18 90.4 40.5C90.4 40.5 90.4 40.5 90.4 40.6C90.9 46 60.9 47.2 54.9 45.6C54 45.4 53.8 44.4 53.8 44C53.8 39.9 53.8 28.2 53.8 28.2C53.8 26.8 52.7 25.7 51.3 25.8C49.9 25.8 48.9 26.9 48.9 28.3V49.8C48.9 51.2 50.1 51.5 50.4 51.6C53.8 51.6 61.7 51.6 69 51.6C78.9 51.6 83.1 52.8 85.9 54.9C87.7 56.3 88.5 59 87.8 62.5C82.1 93.5 46.8 132.1 45.5 133.8ZM141.2 61C150.1 64.8 155.6 69.1 155.6 78.4C155.6 87.9 148.4 94 137.3 94C128.3 94 121 89.9 117.4 82.8L116.8 81.7L127.4 75.6L128.1 76.7C130.5 80.6 133.2 82.3 137 82.3C140.3 82.3 142.6 80.8 142.6 78.6C142.6 76.2 141 75.2 136 73L133.4 71.9C126.6 69 120.3 65 120.3 55.2C120.3 46.4 127 40.3 136.7 40.3C144 40.3 149 43.1 152.4 49.2L153 50.3L142.7 56.9L142 55.6C140.3 52.5 138.7 51.9 136.6 51.9C134.5 51.9 133.1 53.1 133.1 54.9C133.1 57 134.1 57.9 138.6 59.9L141.2 61ZM216.3 62.8L223.8 41.9H236.7L217.7 94.8H214.8L203.2 70C202.7 68.9 202.1 67.5 201.6 66.2C201.1 67.5 200.5 68.9 200 70L188 94.8H185.2L165.9 41.9H179.6L187.2 62.8C187.7 64.1 188.2 65.8 188.6 67.3C189.1 65.7 189.7 64.1 190.4 62.7L200.3 41.5H203.1L213.2 62.7C213.8 64.1 214.5 65.7 215 67.3C215.3 65.8 215.8 64.1 216.3 62.8ZM251.6 93.3V40.8H264.6V93.3H251.6ZM307.1 75.7V64H331.2V87.5L330.7 87.9C327.9 90.2 320.6 94 310.7 94C294 94 282.4 82.9 282.4 67.1C282.4 51.6 293.6 40.3 309.1 40.3C317.6 40.3 323.9 42.7 328.2 47.6L329 48.6L320.2 57.4L319.2 56.4C316.7 53.9 314.2 52.3 309.1 52.3C301.2 52.3 295.6 58.4 295.6 67.2C295.6 76.3 301.5 82.2 310.7 82.2C313.7 82.2 316.9 81.7 319.1 80.8V75.7H307.1ZM372.8 75.7V64H396.9V87.5L396.4 87.9C393.6 90.2 386.3 94 376.4 94C359.7 94 348.1 82.9 348.1 67.1C348.1 51.6 359.3 40.3 374.8 40.3C383.3 40.3 389.6 42.7 393.9 47.6L394.7 48.6L385.9 57.4L384.9 56.4C382.4 53.9 379.9 52.3 374.8 52.3C366.9 52.3 361.3 58.4 361.3 67.2C361.3 76.3 367.2 82.2 376.4 82.2C379.4 82.2 382.6 81.7 384.8 80.8V75.7H372.8ZM444.4 40.9H458L439.4 75.8V93.4H426.4V76.6L406.6 40.9H421L430.2 57.6C431.2 59.4 432.2 61.8 433 63.8C433.7 61.9 434.7 59.5 435.7 57.6L444.4 40.9Z" fill="#FC8019"/>
</svg>
